<?xml version="1.0" encoding="UTF-8"?>
<svg id="Layer_1" xmlns="http://www.w3.org/2000/svg" version="1.1" viewBox="0 0 647.44 678.51">
  <!-- Generator: Adobe Illustrator 30.5.1, SVG Export Plug-In . SVG Version: 2.1.4 Build 3)  -->
  <defs>
    <style>
      .st0 {
        fill: none;
        stroke: #000;
        stroke-miterlimit: 10;
        stroke-width: 4px;
      }
    </style>
  </defs>
  <polyline points="435.36 437.73 435.01 437.13 434.66 436.53 322.99 243.11 322.72 242.64 322.56 242.36 253.18 122.18 323.72 0 393.54 120.93 463.65 242.36 505.9 315.55 575.75 436.53 647.44 560.7 506.35 560.7"/>
  <path d="M435.01,438.33l-70.64,122.37H0l71.69-124.17,112.1-194.17h138.77l.43.75-111.67,193.42h222.65c.43,0,.82.23,1.04.6h0c.22.37.22.83,0,1.21Z"/>
  <path class="st0" d="M183.79,242.36"/>
  <path class="st0" d="M506.35,560.7"/>
  <path class="st0" d="M253.18,122.18"/>
  <path class="st0" d="M393.54,120.93"/>
  <path class="st0" d="M139.63,560.7"/>
  <path class="st0" d="M505.9,315.55"/>
  <path class="st0" d="M296.35,678.51"/>
  <path class="st0" d="M364.37,560.7"/>
  <path class="st0" d="M71.69,436.53"/>
  <path class="st0" d="M575.75,436.53"/>
  <path class="st0" d="M25.03,242.36"/>
  <path class="st0" d="M183.79,242.36"/>
  <path class="st0" d="M463.65,242.36"/>
</svg>