<svg width="200" height="200" viewBox="0 0 200 200" fill="none" xmlns="http://www.w3.org/2000/svg">
<path d="M133.333 66.6667C146.594 66.6667 159.312 71.9345 168.689 81.3113C178.066 90.6882 183.333 103.406 183.333 116.667V175H150V116.667C150 112.246 148.244 108.007 145.118 104.882C141.993 101.756 137.754 100 133.333 100C128.913 100 124.674 101.756 121.548 104.882C118.423 108.007 116.667 112.246 116.667 116.667V175H83.3334V116.667C83.3334 103.406 88.6012 90.6882 97.978 81.3113C107.355 71.9345 120.073 66.6667 133.333 66.6667Z" stroke="white" stroke-width="8" stroke-linecap="round" stroke-linejoin="round"/>
<path d="M50 75H16.6667V175H50V75Z" stroke="white" stroke-width="8" stroke-linecap="round" stroke-linejoin="round"/>
<path d="M33.3334 50C42.5381 50 50 42.5381 50 33.3333C50 24.1286 42.5381 16.6667 33.3334 16.6667C24.1286 16.6667 16.6667 24.1286 16.6667 33.3333C16.6667 42.5381 24.1286 50 33.3334 50Z" stroke="white" stroke-width="8" stroke-linecap="round" stroke-linejoin="round"/>
</svg>
